<svg width="15" height="12" viewBox="0 0 15 12" fill="none" xmlns="http://www.w3.org/2000/svg">
<path fill-rule="evenodd" clip-rule="evenodd" d="M12.6667 0H2C0.866667 0 0 0.866667 0 2V10C0 11.1333 0.866667 12 2 12H12.6667C13.8 12 14.6667 11.1333 14.6667 10V2C14.6667 0.866667 13.8 0 12.6667 0ZM2 1.33333H12.6667C12.9333 1.33333 13.1333 1.46667 13.2667 1.73333L7.33333 5.86667L1.4 1.73333C1.53333 1.46667 1.73333 1.33333 2 1.33333ZM1.33333 10C1.33333 10.4 1.6 10.6667 2 10.6667H12.6667C13.0667 10.6667 13.3333 10.4 13.3333 10V3.26667L7.73333 7.2C7.6 7.26667 7.46667 7.33333 7.33333 7.33333C7.2 7.33333 7.06667 7.26667 6.93333 7.2L1.33333 3.26667V10Z" fill="black"/>
</svg>
