<svg width="20" height="20" viewBox="0 0 20 20" fill="none" xmlns="http://www.w3.org/2000/svg">
<path d="M16 0C18.2091 0 20 1.79086 20 4V16C20 18.2091 18.2091 20 16 20H4C1.79086 20 0 18.2091 0 16V4C0 1.79086 1.79086 0 4 0H16ZM4 1.59961C2.67452 1.59961 1.59961 2.67452 1.59961 4V16C1.59961 17.3255 2.67452 18.4004 4 18.4004H16C17.3255 18.4004 18.4004 17.3255 18.4004 16V4C18.4004 2.67452 17.3255 1.59961 16 1.59961H4ZM10 4C13.3137 4 16 6.68629 16 10C16 13.3137 13.3137 16 10 16C6.68629 16 4 13.3137 4 10C4 6.68629 6.68629 4 10 4ZM10 5.59961C7.56995 5.59961 5.59961 7.56995 5.59961 10C5.59961 12.4301 7.56995 14.4004 10 14.4004C12.4301 14.4004 14.4004 12.4301 14.4004 10C14.4004 7.56995 12.4301 5.59961 10 5.59961ZM16 2.7998C16.6627 2.7998 17.2002 3.33726 17.2002 4C17.2002 4.66274 16.6627 5.2002 16 5.2002C15.3373 5.2002 14.7998 4.66274 14.7998 4C14.7998 3.33726 15.3373 2.7998 16 2.7998Z" fill="#002868"/>
</svg>
