<svg width="22" height="18" viewBox="0 0 22 18" fill="none" xmlns="http://www.w3.org/2000/svg">
<path d="M19 0C20.7 0 22 1.3 22 3V15C22 16.7 20.7 18 19 18H3C1.3 18 0 16.7 0 15V3C0 1.3 1.3 0 3 0H19ZM11.5996 10.7998C11.3997 10.8998 11.1999 11 11 11C10.8001 11 10.6003 10.8998 10.4004 10.7998L2 4.90039V15C2 15.6 2.4 16 3 16H19C19.6 16 20 15.6 20 15V4.90039L11.5996 10.7998ZM3 2C2.60005 2 2.29961 2.19971 2.09961 2.59961L11 8.7998L19.9004 2.59961C19.7004 2.19971 19.3999 2 19 2H3Z" fill="#002868"/>
</svg>
