<svg width="15" height="15" viewBox="0 0 15 15" fill="none" xmlns="http://www.w3.org/2000/svg">
<path fill-rule="evenodd" clip-rule="evenodd" d="M11.1842 8.23744C11.7199 8.43836 12.3227 8.5723 12.9254 8.63927C13.93 8.77321 14.6667 9.64384 14.6667 10.6484V12.6575C14.6667 13.1933 14.3988 13.6621 14.0639 14.0639C13.7291 14.4658 13.1933 14.6667 12.6575 14.6667H12.4566C10.3135 14.4658 8.17047 13.7291 6.36225 12.5236C4.68798 11.4521 3.21461 9.97869 2.14307 8.30441C1.00457 6.4962 0.200913 4.35312 0 2.21005C0 1.67428 0.133942 1.13851 0.468798 0.736682C0.803653 0.334855 1.27245 0.0669711 1.80822 0H2.00913H4.01826C5.02283 0 5.89346 0.736682 6.0274 1.74125C6.09437 2.34399 6.22831 2.94673 6.42922 3.4825C6.69711 4.21918 6.4962 5.0898 5.96043 5.62557L5.49163 6.09437C6.29528 7.36682 7.36682 8.37139 8.5723 9.17504L9.0411 8.70624C9.64384 8.17047 10.4475 7.96956 11.1842 8.23744ZM13.3272 12.6575V10.6484C13.3272 10.3135 13.0594 10.0457 12.7915 9.97869C12.1218 9.84475 11.4521 9.71081 10.7823 9.44292C10.5145 9.30898 10.2466 9.37595 10.0457 9.57686L9.17504 10.4475C8.97412 10.7154 8.63927 10.7154 8.37138 10.5814C6.56317 9.57686 5.0898 8.1035 4.08524 6.29528C3.95129 6.0274 4.01826 5.69254 4.21918 5.49163L5.0898 4.68798C5.22374 4.48706 5.29072 4.21918 5.22374 3.95129C4.95586 3.34855 4.75495 2.61187 4.68798 1.94216C4.621 1.60731 4.35312 1.33942 4.01826 1.33942H2.00913C1.80822 1.33942 1.60731 1.47336 1.47336 1.60731C1.40639 1.74125 1.33942 1.87519 1.33942 2.0761C1.54033 4.01826 2.21005 5.89346 3.28158 7.56773C4.28615 9.10807 5.5586 10.4475 7.09894 11.3851C8.77321 12.4566 10.6484 13.1263 12.5906 13.3272C12.8584 13.3272 12.9924 13.2603 13.1263 13.1263C13.2603 12.9924 13.3272 12.8584 13.3272 12.6575Z" fill="black"/>
</svg>
